# xmcd
#
# Track frame offsets:
# 150
# 20670
# 35559
# 52275
# 68019
# 84792
# 98310
# 117501
# 132420
# 147912
# 169473
# 187920
# 203472
# 217323
#
# Disc length: 3069 seconds
#
#
# Revision: 0
# Processed by: cddbd v1.5.1PL2 Copyright (c) Steve Scherf et al.
# Submitted via: FreeRIP 2.944 
#
DISCID=ca0bfb0e
DTITLE=Varios  - Coração Sertanejo
DYEAR=2002
DGENRE=Country
TTITLE0=Daniel - Seus Beijos
TTITLE1=Leandro and Leonardo - Pense em Mim
TTITLE2=Ségio Reis - Tocando em Frente
TTITLE3=Rick and Renner - Enrosca Enrosca
TTITLE4=Gian and Giovani - Nem Dormindo Consigo Te Esquecer
TTITLE5=João Paulo and Daniel - Eu Quero Seu Amor Pra mim
TTITLE6=Chrystian and Ralf - Chora Peito
TTITLE7=Leandro and Leonardo - EntreTapas e Beijos
TTITLE8=Rick and Renner - Ela é Demais
TTITLE9=Cezar and Paulinho - Nunca Mais
TTITLE10=Daniel - Vou Levando a Vida
TTITLE11=Ataide and Alexandre - Agenda Rabiscada
TTITLE12=Almir Sater - Ana Bonita
TTITLE13=Teodoro and Sampaio - Feitiço de Amor
EXTD=Topografo Café
EXTT0=
EXTT1=
EXTT2=
EXTT3=
EXTT4=
EXTT5=
EXTT6=
EXTT7=
EXTT8=
EXTT9=
EXTT10=
EXTT11=
EXTT12=
EXTT13=
PLAYORDER=
